solid OpenSCAD_Model
  facet normal 0.923879 0.382684 0
    outer loop
      vertex 3 0 1.5
      vertex 2.12132 2.12132 -1.5
      vertex 2.12132 2.12132 1.5
    endloop
  endfacet
  facet normal 0.923879 0.382684 0
    outer loop
      vertex 2.12132 2.12132 -1.5
      vertex 3 0 1.5
      vertex 3 0 -1.5
    endloop
  endfacet
  facet normal -0.923879 0.382684 0
    outer loop
      vertex -3 0 -1.5
      vertex -2.12132 2.12132 1.5
      vertex -2.12132 2.12132 -1.5
    endloop
  endfacet
  facet normal -0.923879 0.382684 0
    outer loop
      vertex -2.12132 2.12132 1.5
      vertex -3 0 -1.5
      vertex -3 0 1.5
    endloop
  endfacet
  facet normal 0.382684 0.923879 -0
    outer loop
      vertex 2.12132 2.12132 -1.5
      vertex 0 3 1.5
      vertex 2.12132 2.12132 1.5
    endloop
  endfacet
  facet normal 0.382684 0.923879 0
    outer loop
      vertex 0 3 1.5
      vertex 2.12132 2.12132 -1.5
      vertex 0 3 -1.5
    endloop
  endfacet
  facet normal 0 0 -1
    outer loop
      vertex 2.12132 -2.12132 -1.5
      vertex 2.5 0 -1.5
      vertex 3 0 -1.5
    endloop
  endfacet
  facet normal 0 0 -1
    outer loop
      vertex 2.12132 -2.12132 -1.5
      vertex 1.76777 -1.76777 -1.5
      vertex 2.5 0 -1.5
    endloop
  endfacet
  facet normal 0 0 -1
    outer loop
      vertex 0 -3 -1.5
      vertex 1.76777 -1.76777 -1.5
      vertex 2.12132 -2.12132 -1.5
    endloop
  endfacet
  facet normal 0 0 -1
    outer loop
      vertex 0 -3 -1.5
      vertex 0 -2.5 -1.5
      vertex 1.76777 -1.76777 -1.5
    endloop
  endfacet
  facet normal 0 0 -1
    outer loop
      vertex 0 -3 -1.5
      vertex -1.76777 -1.76777 -1.5
      vertex 0 -2.5 -1.5
    endloop
  endfacet
  facet normal 0 0 -1
    outer loop
      vertex -2.12132 -2.12132 -1.5
      vertex -1.76777 -1.76777 -1.5
      vertex 0 -3 -1.5
    endloop
  endfacet
  facet normal 0 0 -1
    outer loop
      vertex -2.12132 -2.12132 -1.5
      vertex -2.5 0 -1.5
      vertex -1.76777 -1.76777 -1.5
    endloop
  endfacet
  facet normal -0 -0 -1
    outer loop
      vertex -2.5 0 -1.5
      vertex -2.12132 -2.12132 -1.5
      vertex -3 0 -1.5
    endloop
  endfacet
  facet normal 0 0 -1
    outer loop
      vertex 2.5 0 -1.5
      vertex 2.12132 2.12132 -1.5
      vertex 3 0 -1.5
    endloop
  endfacet
  facet normal 0 0 -1
    outer loop
      vertex 1.76777 1.76777 -1.5
      vertex 2.12132 2.12132 -1.5
      vertex 2.5 0 -1.5
    endloop
  endfacet
  facet normal 0 0 -1
    outer loop
      vertex 0 2.5 -1.5
      vertex 2.12132 2.12132 -1.5
      vertex 1.76777 1.76777 -1.5
    endloop
  endfacet
  facet normal 0 0 -1
    outer loop
      vertex 0 2.5 -1.5
      vertex 0 3 -1.5
      vertex 2.12132 2.12132 -1.5
    endloop
  endfacet
  facet normal 0 0 -1
    outer loop
      vertex -1.76777 1.76777 -1.5
      vertex 0 3 -1.5
      vertex 0 2.5 -1.5
    endloop
  endfacet
  facet normal 0 0 -1
    outer loop
      vertex -1.76777 1.76777 -1.5
      vertex -2.12132 2.12132 -1.5
      vertex 0 3 -1.5
    endloop
  endfacet
  facet normal 0 0 -1
    outer loop
      vertex -2.5 0 -1.5
      vertex -2.12132 2.12132 -1.5
      vertex -1.76777 1.76777 -1.5
    endloop
  endfacet
  facet normal 0 0 -1
    outer loop
      vertex -2.12132 2.12132 -1.5
      vertex -2.5 0 -1.5
      vertex -3 0 -1.5
    endloop
  endfacet
  facet normal -0.382684 0.923879 0
    outer loop
      vertex 0 3 -1.5
      vertex -2.12132 2.12132 1.5
      vertex 0 3 1.5
    endloop
  endfacet
  facet normal -0.382684 0.923879 0
    outer loop
      vertex -2.12132 2.12132 1.5
      vertex 0 3 -1.5
      vertex -2.12132 2.12132 -1.5
    endloop
  endfacet
  facet normal 0.382684 -0.923879 0
    outer loop
      vertex 0 -3 -1.5
      vertex 2.12132 -2.12132 1.5
      vertex 0 -3 1.5
    endloop
  endfacet
  facet normal 0.382684 -0.923879 0
    outer loop
      vertex 2.12132 -2.12132 1.5
      vertex 0 -3 -1.5
      vertex 2.12132 -2.12132 -1.5
    endloop
  endfacet
  facet normal -0.923879 -0.382684 0
    outer loop
      vertex -2.12132 -2.12132 -1.5
      vertex -3 0 1.5
      vertex -3 0 -1.5
    endloop
  endfacet
  facet normal -0.923879 -0.382684 0
    outer loop
      vertex -3 0 1.5
      vertex -2.12132 -2.12132 -1.5
      vertex -2.12132 -2.12132 1.5
    endloop
  endfacet
  facet normal 0.923879 -0.382684 0
    outer loop
      vertex 2.12132 -2.12132 1.5
      vertex 3 0 -1.5
      vertex 3 0 1.5
    endloop
  endfacet
  facet normal 0.923879 -0.382684 0
    outer loop
      vertex 3 0 -1.5
      vertex 2.12132 -2.12132 1.5
      vertex 2.12132 -2.12132 -1.5
    endloop
  endfacet
  facet normal -0.382684 -0.923879 0
    outer loop
      vertex -2.12132 -2.12132 -1.5
      vertex 0 -3 1.5
      vertex -2.12132 -2.12132 1.5
    endloop
  endfacet
  facet normal -0.382684 -0.923879 -0
    outer loop
      vertex 0 -3 1.5
      vertex -2.12132 -2.12132 -1.5
      vertex 0 -3 -1.5
    endloop
  endfacet
  facet normal 0 0 1
    outer loop
      vertex 2.12132 2.12132 1.5
      vertex 2.5 0 1.5
      vertex 3 0 1.5
    endloop
  endfacet
  facet normal 0 0 1
    outer loop
      vertex 2.12132 2.12132 1.5
      vertex 1.76777 1.76777 1.5
      vertex 2.5 0 1.5
    endloop
  endfacet
  facet normal 0 0 1
    outer loop
      vertex 0 3 1.5
      vertex 1.76777 1.76777 1.5
      vertex 2.12132 2.12132 1.5
    endloop
  endfacet
  facet normal 0 0 1
    outer loop
      vertex 0 3 1.5
      vertex 0 2.5 1.5
      vertex 1.76777 1.76777 1.5
    endloop
  endfacet
  facet normal 0 0 1
    outer loop
      vertex 0 3 1.5
      vertex -1.76777 1.76777 1.5
      vertex 0 2.5 1.5
    endloop
  endfacet
  facet normal -0 0 1
    outer loop
      vertex -2.12132 2.12132 1.5
      vertex -1.76777 1.76777 1.5
      vertex 0 3 1.5
    endloop
  endfacet
  facet normal 0 0 1
    outer loop
      vertex -2.12132 2.12132 1.5
      vertex -2.5 0 1.5
      vertex -1.76777 1.76777 1.5
    endloop
  endfacet
  facet normal 0 -0 1
    outer loop
      vertex -2.5 0 1.5
      vertex -2.12132 2.12132 1.5
      vertex -3 0 1.5
    endloop
  endfacet
  facet normal -0 0 1
    outer loop
      vertex 2.5 0 1.5
      vertex 2.12132 -2.12132 1.5
      vertex 3 0 1.5
    endloop
  endfacet
  facet normal -0 0 1
    outer loop
      vertex 1.76777 -1.76777 1.5
      vertex 2.12132 -2.12132 1.5
      vertex 2.5 0 1.5
    endloop
  endfacet
  facet normal 0 0 1
    outer loop
      vertex 0 -2.5 1.5
      vertex 2.12132 -2.12132 1.5
      vertex 1.76777 -1.76777 1.5
    endloop
  endfacet
  facet normal -0 0 1
    outer loop
      vertex 0 -2.5 1.5
      vertex 0 -3 1.5
      vertex 2.12132 -2.12132 1.5
    endloop
  endfacet
  facet normal 0 0 1
    outer loop
      vertex -1.76777 -1.76777 1.5
      vertex 0 -3 1.5
      vertex 0 -2.5 1.5
    endloop
  endfacet
  facet normal 0 0 1
    outer loop
      vertex -1.76777 -1.76777 1.5
      vertex -2.12132 -2.12132 1.5
      vertex 0 -3 1.5
    endloop
  endfacet
  facet normal 0 0 1
    outer loop
      vertex -2.5 0 1.5
      vertex -2.12132 -2.12132 1.5
      vertex -1.76777 -1.76777 1.5
    endloop
  endfacet
  facet normal 0 0 1
    outer loop
      vertex -2.12132 -2.12132 1.5
      vertex -2.5 0 1.5
      vertex -3 0 1.5
    endloop
  endfacet
  facet normal -0.92388 -0.382683 0
    outer loop
      vertex 2.5 0 -1.5
      vertex 1.76777 1.76777 1.5
      vertex 1.76777 1.76777 -1.5
    endloop
  endfacet
  facet normal -0.92388 -0.382683 0
    outer loop
      vertex 1.76777 1.76777 1.5
      vertex 2.5 0 -1.5
      vertex 2.5 0 1.5
    endloop
  endfacet
  facet normal 0.92388 -0.382683 0
    outer loop
      vertex -2.5 0 1.5
      vertex -1.76777 1.76777 -1.5
      vertex -1.76777 1.76777 1.5
    endloop
  endfacet
  facet normal 0.92388 -0.382683 0
    outer loop
      vertex -1.76777 1.76777 -1.5
      vertex -2.5 0 1.5
      vertex -2.5 0 -1.5
    endloop
  endfacet
  facet normal -0.382683 -0.92388 0
    outer loop
      vertex 0 2.5 -1.5
      vertex 1.76777 1.76777 1.5
      vertex 0 2.5 1.5
    endloop
  endfacet
  facet normal -0.382683 -0.92388 -0
    outer loop
      vertex 1.76777 1.76777 1.5
      vertex 0 2.5 -1.5
      vertex 1.76777 1.76777 -1.5
    endloop
  endfacet
  facet normal 0.382683 -0.92388 0
    outer loop
      vertex -1.76777 1.76777 -1.5
      vertex 0 2.5 1.5
      vertex -1.76777 1.76777 1.5
    endloop
  endfacet
  facet normal 0.382683 -0.92388 0
    outer loop
      vertex 0 2.5 1.5
      vertex -1.76777 1.76777 -1.5
      vertex 0 2.5 -1.5
    endloop
  endfacet
  facet normal -0.382683 0.92388 0
    outer loop
      vertex 1.76777 -1.76777 -1.5
      vertex 0 -2.5 1.5
      vertex 1.76777 -1.76777 1.5
    endloop
  endfacet
  facet normal -0.382683 0.92388 0
    outer loop
      vertex 0 -2.5 1.5
      vertex 1.76777 -1.76777 -1.5
      vertex 0 -2.5 -1.5
    endloop
  endfacet
  facet normal 0.92388 0.382683 0
    outer loop
      vertex -1.76777 -1.76777 1.5
      vertex -2.5 0 -1.5
      vertex -2.5 0 1.5
    endloop
  endfacet
  facet normal 0.92388 0.382683 0
    outer loop
      vertex -2.5 0 -1.5
      vertex -1.76777 -1.76777 1.5
      vertex -1.76777 -1.76777 -1.5
    endloop
  endfacet
  facet normal 0.382683 0.92388 -0
    outer loop
      vertex 0 -2.5 -1.5
      vertex -1.76777 -1.76777 1.5
      vertex 0 -2.5 1.5
    endloop
  endfacet
  facet normal 0.382683 0.92388 0
    outer loop
      vertex -1.76777 -1.76777 1.5
      vertex 0 -2.5 -1.5
      vertex -1.76777 -1.76777 -1.5
    endloop
  endfacet
  facet normal -0.92388 0.382683 0
    outer loop
      vertex 1.76777 -1.76777 -1.5
      vertex 2.5 0 1.5
      vertex 2.5 0 -1.5
    endloop
  endfacet
  facet normal -0.92388 0.382683 0
    outer loop
      vertex 2.5 0 1.5
      vertex 1.76777 -1.76777 -1.5
      vertex 1.76777 -1.76777 1.5
    endloop
  endfacet
endsolid OpenSCAD_Model
